<?xml version="1.0" encoding="UTF-8"?>
<svg width="1280" height="800" viewBox="0 0 1280 800" role="img" xmlns="http://www.w3.org/2000/svg" font-family="'Inter','SF Pro Display',-apple-system,system-ui,sans-serif">
<title>Beauty Diagram store screenshot: works on the tools you already use</title>
<desc>A grid of supported platform chips including GitHub, GitLab, Jira, dev.to and AI chats, plus an any-other-site chip.</desc>
<rect x="0" y="0" width="1280" height="800" fill="#0F0F14"/>
<g transform="translate(80,52) scale(0.625)">
<path d="M20 20 L44 44" stroke="#A78BFA" stroke-width="3.5" stroke-linecap="round" fill="none"/>
<rect x="8" y="8" width="22" height="22" rx="7" fill="#E4E4E7"/>
<rect x="34" y="34" width="22" height="22" rx="7" fill="none" stroke="#A78BFA" stroke-width="3.5"/>
<circle cx="16" cy="16" r="3" fill="#0F0F14"/>
</g>
<text x="132" y="81" fill="#F4F4F5" font-size="24" font-weight="600" letter-spacing="-0.3">Beauty Diagram</text>
<text x="80" y="244" fill="#F4F4F5" font-size="52" font-weight="700" letter-spacing="-1.2">Works on the tools you already use.</text>
<text x="82" y="290" fill="#9CA3AF" font-size="22" font-weight="400">Built-in on these platforms — plus a one-click toggle for any other site.</text>
<g font-size="21" font-weight="500">
<rect x="84" y="360" width="260" height="78" rx="14" fill="#17171C" stroke="#2A2A33"/><circle cx="110" cy="399" r="4" fill="#8B5CF6"/><text x="128" y="406" fill="#E4E4E7">GitHub</text>
<rect x="368" y="360" width="260" height="78" rx="14" fill="#17171C" stroke="#2A2A33"/><circle cx="394" cy="399" r="4" fill="#8B5CF6"/><text x="412" y="406" fill="#E4E4E7">GitLab</text>
<rect x="652" y="360" width="260" height="78" rx="14" fill="#17171C" stroke="#2A2A33"/><circle cx="678" cy="399" r="4" fill="#8B5CF6"/><text x="696" y="406" fill="#E4E4E7">Jira / Confluence</text>
<rect x="936" y="360" width="260" height="78" rx="14" fill="#17171C" stroke="#2A2A33"/><circle cx="962" cy="399" r="4" fill="#8B5CF6"/><text x="980" y="406" fill="#E4E4E7">dev.to</text>
<rect x="84" y="462" width="260" height="78" rx="14" fill="#17171C" stroke="#2A2A33"/><circle cx="110" cy="501" r="4" fill="#8B5CF6"/><text x="128" y="508" fill="#E4E4E7">Stack Overflow</text>
<rect x="368" y="462" width="260" height="78" rx="14" fill="#17171C" stroke="#2A2A33"/><circle cx="394" cy="501" r="4" fill="#8B5CF6"/><text x="412" y="508" fill="#E4E4E7">Linear</text>
<rect x="652" y="462" width="260" height="78" rx="14" fill="#17171C" stroke="#2A2A33"/><circle cx="678" cy="501" r="4" fill="#8B5CF6"/><text x="696" y="508" fill="#E4E4E7">Hashnode</text>
<rect x="936" y="462" width="260" height="78" rx="14" fill="#17171C" stroke="#2A2A33"/><circle cx="962" cy="501" r="4" fill="#8B5CF6"/><text x="980" y="508" fill="#E4E4E7">ChatGPT</text>
<rect x="84" y="564" width="260" height="78" rx="14" fill="#17171C" stroke="#2A2A33"/><circle cx="110" cy="603" r="4" fill="#8B5CF6"/><text x="128" y="610" fill="#E4E4E7">Claude</text>
<rect x="368" y="564" width="260" height="78" rx="14" fill="#17171C" stroke="#2A2A33"/><circle cx="394" cy="603" r="4" fill="#8B5CF6"/><text x="412" y="610" fill="#E4E4E7">Gemini</text>
<rect x="652" y="564" width="260" height="78" rx="14" fill="#17171C" stroke="#2A2A33"/><circle cx="678" cy="603" r="4" fill="#8B5CF6"/><text x="696" y="610" fill="#E4E4E7">Perplexity</text>
<rect x="936" y="564" width="260" height="78" rx="14" fill="#1B1633" stroke="#5B4BA6"/><circle cx="962" cy="603" r="4" fill="#A78BFA"/><text x="980" y="610" fill="#C4B5FD">+ any other site</text>
</g>
<text x="640" y="704" fill="#6B7280" font-size="16" font-weight="400" text-anchor="middle">Auto-on for built-in sites · per-site toggle everywhere else</text>
</svg>