<?xml version="1.0" encoding="UTF-8"?>
<svg width="1280" height="800" viewBox="0 0 1280 800" role="img" xmlns="http://www.w3.org/2000/svg" font-family="'Inter','SF Pro Display',-apple-system,system-ui,sans-serif">
<title>Beauty Diagram store screenshot: one diagram, every theme</title>
<desc>The same A to B to C diagram shown in three themes: classic cream, dark slate, and light violet.</desc>
<rect x="0" y="0" width="1280" height="800" fill="#0F0F14"/>
<g transform="translate(80,52) scale(0.625)">
<path d="M20 20 L44 44" stroke="#A78BFA" stroke-width="3.5" stroke-linecap="round" fill="none"/>
<rect x="8" y="8" width="22" height="22" rx="7" fill="#E4E4E7"/>
<rect x="34" y="34" width="22" height="22" rx="7" fill="none" stroke="#A78BFA" stroke-width="3.5"/>
<circle cx="16" cy="16" r="3" fill="#0F0F14"/>
</g>
<text x="132" y="81" fill="#F4F4F5" font-size="24" font-weight="600" letter-spacing="-0.3">Beauty Diagram</text>
<text x="80" y="246" font-size="52" font-weight="700" letter-spacing="-1.2"><tspan fill="#F4F4F5">One diagram, </tspan><tspan fill="#A78BFA">every theme.</tspan></text>
<text x="82" y="292" fill="#9CA3AF" font-size="22" font-weight="400">Nine built-in themes — match your docs, your slides, your dark mode.</text>
<rect x="70" y="360" width="360" height="300" rx="18" fill="#ECE7D6" stroke="#00000018"/>
<rect x="94" y="386" width="76" height="28" rx="8" fill="#CDC2F2"/><text x="132" y="405" fill="#4B2E9E" font-size="14" font-weight="600" text-anchor="middle">classic</text>
<rect x="110" y="506" width="70" height="46" rx="9" fill="#1A1A1A"/><rect x="104" y="500" width="70" height="46" rx="9" fill="#FFFFFF" stroke="#1A1A1A" stroke-width="2"/><text x="139" y="531" fill="#111111" font-size="18" font-weight="700" text-anchor="middle">A</text>
<line x1="174" y1="523" x2="205" y2="523" stroke="#111111" stroke-width="2.5"/><polygon points="205,517 215,523 205,529" fill="#111111"/>
<rect x="221" y="506" width="70" height="46" rx="9" fill="#1A1A1A"/><rect x="215" y="500" width="70" height="46" rx="9" fill="#8FE0CE" stroke="#1A1A1A" stroke-width="2"/><text x="250" y="531" fill="#08332A" font-size="18" font-weight="700" text-anchor="middle">B</text>
<line x1="285" y1="523" x2="316" y2="523" stroke="#111111" stroke-width="2.5"/><polygon points="316,517 326,523 316,529" fill="#111111"/>
<rect x="332" y="506" width="70" height="46" rx="9" fill="#1A1A1A"/><rect x="326" y="500" width="70" height="46" rx="9" fill="#D7CCF7" stroke="#1A1A1A" stroke-width="2"/><text x="361" y="531" fill="#2E1C6B" font-size="18" font-weight="700" text-anchor="middle">C</text>
<rect x="460" y="360" width="360" height="300" rx="18" fill="#1E293B" stroke="#334155"/>
<rect x="484" y="386" width="70" height="28" rx="8" fill="#334155"/><text x="519" y="405" fill="#CBD5E1" font-size="14" font-weight="600" text-anchor="middle">slate</text>
<rect x="500" y="506" width="70" height="46" rx="9" fill="#0F172A"/><rect x="494" y="500" width="70" height="46" rx="9" fill="#475569" stroke="#0F172A" stroke-width="2"/><text x="529" y="531" fill="#E2E8F0" font-size="18" font-weight="700" text-anchor="middle">A</text>
<line x1="564" y1="523" x2="595" y2="523" stroke="#94A3B8" stroke-width="2.5"/><polygon points="595,517 605,523 595,529" fill="#94A3B8"/>
<rect x="611" y="506" width="70" height="46" rx="9" fill="#0F172A"/><rect x="605" y="500" width="70" height="46" rx="9" fill="#38BDF8" stroke="#0F172A" stroke-width="2"/><text x="640" y="531" fill="#082F49" font-size="18" font-weight="700" text-anchor="middle">B</text>
<line x1="675" y1="523" x2="706" y2="523" stroke="#94A3B8" stroke-width="2.5"/><polygon points="706,517 716,523 706,529" fill="#94A3B8"/>
<rect x="722" y="506" width="70" height="46" rx="9" fill="#0F172A"/><rect x="716" y="500" width="70" height="46" rx="9" fill="#818CF8" stroke="#0F172A" stroke-width="2"/><text x="751" y="531" fill="#1E1B4B" font-size="18" font-weight="700" text-anchor="middle">C</text>
<rect x="850" y="360" width="360" height="300" rx="18" fill="#F5F3FF" stroke="#E0D7FB"/>
<rect x="874" y="386" width="72" height="28" rx="8" fill="#EDE9FE"/><text x="910" y="405" fill="#5B21B6" font-size="14" font-weight="600" text-anchor="middle">violet</text>
<rect x="890" y="506" width="70" height="46" rx="9" fill="#C4B5FD"/><rect x="884" y="500" width="70" height="46" rx="9" fill="#FFFFFF" stroke="#6D28D9" stroke-width="2"/><text x="919" y="531" fill="#4B2E9E" font-size="18" font-weight="700" text-anchor="middle">A</text>
<line x1="954" y1="523" x2="985" y2="523" stroke="#6D28D9" stroke-width="2.5"/><polygon points="985,517 995,523 985,529" fill="#6D28D9"/>
<rect x="1001" y="506" width="70" height="46" rx="9" fill="#C4B5FD"/><rect x="995" y="500" width="70" height="46" rx="9" fill="#DDD6FE" stroke="#6D28D9" stroke-width="2"/><text x="1030" y="531" fill="#4B2E9E" font-size="18" font-weight="700" text-anchor="middle">B</text>
<line x1="1065" y1="523" x2="1096" y2="523" stroke="#6D28D9" stroke-width="2.5"/><polygon points="1096,517 1106,523 1096,529" fill="#6D28D9"/>
<rect x="1112" y="506" width="70" height="46" rx="9" fill="#C4B5FD"/><rect x="1106" y="500" width="70" height="46" rx="9" fill="#A78BFA" stroke="#6D28D9" stroke-width="2"/><text x="1141" y="531" fill="#2E1C6B" font-size="18" font-weight="700" text-anchor="middle">C</text>
<text x="640" y="706" fill="#6B7280" font-size="16" font-weight="400" text-anchor="middle">Plus modern, atlas, obsidian, brutalist, atelier, blueprint &amp; memphis.</text>
</svg>